<mxfile host="65bd71144e">
    <diagram name="UCdetail-03: Visualization Practice Module" id="ucdetail-03">
        <mxGraphModel dx="449" dy="427" grid="1" gridSize="10" guides="1" tooltips="1" connect="1" arrows="1" fold="1" page="1" pageScale="1" pageWidth="1200" pageHeight="800" math="0" shadow="0">
            <root>
                <mxCell id="0"/>
                <mxCell id="1" parent="0"/>
                <mxCell id="title" value="UCdetail-03: Visualization Practice Module" style="text;html=1;align=center;verticalAlign=middle;whiteSpace=wrap;rounded=0;fontSize=18;fontStyle=1;fillColor=#fa541c;fontColor=#ffffff" parent="1" vertex="1">
                    <mxGeometry x="200" y="20" width="800" height="40" as="geometry"/>
                </mxCell>
                <mxCell id="system-boundary" value="Visualization Practice Module" style="rounded=1;whiteSpace=wrap;html=1;fontSize=14;fontStyle=1;fillColor=#fff2e8;strokeColor=#fa541c;strokeWidth=2;verticalAlign=top" parent="1" vertex="1">
                    <mxGeometry x="150" y="80" width="900" height="650" as="geometry"/>
                </mxCell>
                <mxCell id="student" value="Student" style="shape=umlActor;verticalLabelPosition=bottom;verticalAlign=top;html=1;outlineConnect=0;fontSize=12;fillColor=#d5e8d4;strokeColor=#82b366" parent="1" vertex="1">
                    <mxGeometry x="50" y="300" width="40" height="80" as="geometry"/>
                </mxCell>
                <mxCell id="visualization-engine" value="Visualization&#xa;Engine" style="shape=umlActor;verticalLabelPosition=bottom;verticalAlign=top;html=1;outlineConnect=0;fontSize=10;fillColor=#dae8fc;strokeColor=#6c8ebf" parent="1" vertex="1">
                    <mxGeometry x="1100" y="275" width="40" height="80" as="geometry"/>
                </mxCell>
                <mxCell id="animation-controller" value="Animation&#xa;Controller" style="shape=umlActor;verticalLabelPosition=bottom;verticalAlign=top;html=1;outlineConnect=0;fontSize=10;fillColor=#fff2cc;strokeColor=#d6b656" parent="1" vertex="1">
                    <mxGeometry x="1100" y="390" width="40" height="80" as="geometry"/>
                </mxCell>
                <mxCell id="start-visualization" value="Start Algorithm&#xa;Visualization" style="ellipse;whiteSpace=wrap;html=1;fontSize=11;fillColor=#d5e8d4;strokeColor=#82b366;fontStyle=1" parent="1" vertex="1">
                    <mxGeometry x="200" y="120" width="120" height="70" as="geometry"/>
                </mxCell>
                <mxCell id="input-data" value="Input Custom&#xa;Data Set" style="ellipse;whiteSpace=wrap;html=1;fontSize=11;fillColor=#d5e8d4;strokeColor=#82b366" parent="1" vertex="1">
                    <mxGeometry x="460" y="120" width="120" height="70" as="geometry"/>
                </mxCell>
                <mxCell id="control-animation" value="Control Animation&#xa;Speed" style="ellipse;whiteSpace=wrap;html=1;fontSize=11;fillColor=#d5e8d4;strokeColor=#82b366" parent="1" vertex="1">
                    <mxGeometry x="360" y="300" width="120" height="70" as="geometry"/>
                </mxCell>
                <mxCell id="step-through" value="Step Through&#xa;Algorithm" style="ellipse;whiteSpace=wrap;html=1;fontSize=11;fillColor=#ffe6cc;strokeColor=#d79b00" parent="1" vertex="1">
                    <mxGeometry x="840" y="280" width="120" height="70" as="geometry"/>
                </mxCell>
                <mxCell id="pause-resume" value="Pause/Resume&#xa;Execution" style="ellipse;whiteSpace=wrap;html=1;fontSize=11;fillColor=#ffe6cc;strokeColor=#d79b00" parent="1" vertex="1">
                    <mxGeometry x="840" y="120" width="120" height="70" as="geometry"/>
                </mxCell>
                <mxCell id="modify-parameters" value="Modify Algorithm&#xa;Parameters" style="ellipse;whiteSpace=wrap;html=1;fontSize=11;fillColor=#f0f9ff;strokeColor=#1890ff" parent="1" vertex="1">
                    <mxGeometry x="200" y="300" width="120" height="70" as="geometry"/>
                </mxCell>
                <mxCell id="highlight-operations" value="Highlight Current&#xa;Operations" style="ellipse;whiteSpace=wrap;html=1;fontSize=11;fillColor=#f0f9ff;strokeColor=#1890ff" parent="1" vertex="1">
                    <mxGeometry x="460" y="250" width="120" height="70" as="geometry"/>
                </mxCell>
                <mxCell id="view-state-info" value="View Data Structure&#xa;State Info" style="ellipse;whiteSpace=wrap;html=1;fontSize=11;fillColor=#f0f9ff;strokeColor=#1890ff" parent="1" vertex="1">
                    <mxGeometry x="590" y="280" width="120" height="70" as="geometry"/>
                </mxCell>
                <mxCell id="compare-executions" value="Compare Multiple&#xa;Executions" style="ellipse;whiteSpace=wrap;html=1;fontSize=11;fillColor=#e1d5e7;strokeColor=#9673a6" parent="1" vertex="1">
                    <mxGeometry x="590" y="120" width="120" height="70" as="geometry"/>
                </mxCell>
                <mxCell id="practice-mode" value="Enter Practice&#xa;Mode" style="ellipse;whiteSpace=wrap;html=1;fontSize=12;fillColor=#fff7e6;strokeColor=#d48806;fontStyle=1" parent="1" vertex="1">
                    <mxGeometry x="190" y="390" width="140" height="80" as="geometry"/>
                </mxCell>
                <mxCell id="save-session" value="Save Practice&#xa;Session" style="ellipse;whiteSpace=wrap;html=1;fontSize=11;fillColor=#fff0f6;strokeColor=#d48fb1" parent="1" vertex="1">
                    <mxGeometry x="460" y="395" width="120" height="70" as="geometry"/>
                </mxCell>
                <mxCell id="scenario-basic" value="Scenario 1: Basic Visualization&#xa;• Student selects sorting algorithm&#xa;• Inputs array [64,34,25,12,22]&#xa;• Starts visualization with normal speed&#xa;• Observes step-by-step execution&#xa;• Pauses to analyze specific step&#xa;• Completes full algorithm run" style="rounded=1;whiteSpace=wrap;html=1;fontSize=10;align=left;verticalAlign=top;fillColor=#f0f9ff;strokeColor=#1890ff" parent="1" vertex="1">
                    <mxGeometry x="180" y="500" width="200" height="120" as="geometry"/>
                </mxCell>
                <mxCell id="scenario-interactive" value="Scenario 2: Interactive Practice&#xa;• Student enters practice mode&#xa;• Modifies algorithm parameters&#xa;• Tests with different data sizes&#xa;• Compares performance metrics&#xa;• Highlights critical operations&#xa;• Saves session for review" style="rounded=1;whiteSpace=wrap;html=1;fontSize=10;align=left;verticalAlign=top;fillColor=#f6ffed;strokeColor=#52c41a" parent="1" vertex="1">
                    <mxGeometry x="400" y="500" width="200" height="120" as="geometry"/>
                </mxCell>
                <mxCell id="scenario-advanced" value="Scenario 3: Advanced Analysis&#xa;• Student analyzes complex algorithm&#xa;• Steps through each iteration&#xa;• Views internal state changes&#xa;• Compares with alternative methods&#xa;• Identifies optimization points&#xa;• Documents findings" style="rounded=1;whiteSpace=wrap;html=1;fontSize=10;align=left;verticalAlign=top;fillColor=#fff7e6;strokeColor=#d48806" parent="1" vertex="1">
                    <mxGeometry x="620" y="500" width="200" height="120" as="geometry"/>
                </mxCell>
                <mxCell id="student-start" value="" style="endArrow=none;html=1;rounded=0;fontSize=12;startSize=8;endSize=8;exitX=1;exitY=0.3;" parent="1" source="student" target="start-visualization" edge="1">
                    <mxGeometry width="50" height="50" relative="1" as="geometry">
                        <mxPoint x="400" y="400" as="sourcePoint"/>
                        <mxPoint x="450" y="350" as="targetPoint"/>
                    </mxGeometry>
                </mxCell>
                <mxCell id="student-input" value="" style="endArrow=none;html=1;rounded=0;fontSize=12;startSize=8;endSize=8;exitX=1;exitY=0.5;" parent="1" source="student" target="input-data" edge="1">
                    <mxGeometry width="50" height="50" relative="1" as="geometry">
                        <mxPoint x="400" y="400" as="sourcePoint"/>
                        <mxPoint x="450" y="350" as="targetPoint"/>
                    </mxGeometry>
                </mxCell>
                <mxCell id="student-practice" value="" style="endArrow=none;html=1;rounded=0;fontSize=12;startSize=8;endSize=8;exitX=1;exitY=0.7;" parent="1" source="student" target="practice-mode" edge="1">
                    <mxGeometry width="50" height="50" relative="1" as="geometry">
                        <mxPoint x="400" y="400" as="sourcePoint"/>
                        <mxPoint x="450" y="350" as="targetPoint"/>
                    </mxGeometry>
                </mxCell>
                <mxCell id="engine-connection" value="" style="endArrow=none;html=1;rounded=0;fontSize=12;startSize=8;endSize=8;" parent="1" source="visualization-engine" target="step-through" edge="1">
                    <mxGeometry width="50" height="50" relative="1" as="geometry">
                        <mxPoint x="400" y="400" as="sourcePoint"/>
                        <mxPoint x="450" y="350" as="targetPoint"/>
                    </mxGeometry>
                </mxCell>
                <mxCell id="animation-connection" value="" style="endArrow=none;html=1;rounded=0;fontSize=12;startSize=8;endSize=8;exitX=0;exitY=0.5;" parent="1" source="animation-controller" target="view-state-info" edge="1">
                    <mxGeometry width="50" height="50" relative="1" as="geometry">
                        <mxPoint x="400" y="400" as="sourcePoint"/>
                        <mxPoint x="450" y="350" as="targetPoint"/>
                    </mxGeometry>
                </mxCell>
                <mxCell id="3" value="&amp;lt;&amp;lt;include&amp;gt;&amp;gt;" style="html=1;verticalAlign=bottom;labelBackgroundColor=none;endArrow=open;endFill=0;dashed=1;exitX=1;exitY=0.5;exitDx=0;exitDy=0;entryX=0;entryY=0.5;entryDx=0;entryDy=0;" parent="1" source="start-visualization" target="input-data" edge="1">
                    <mxGeometry width="160" relative="1" as="geometry">
                        <mxPoint x="200" y="240" as="sourcePoint"/>
                        <mxPoint x="360" y="240" as="targetPoint"/>
                    </mxGeometry>
                </mxCell>
                <mxCell id="6" value="&amp;lt;&amp;lt;include&amp;gt;&amp;gt;" style="html=1;verticalAlign=bottom;labelBackgroundColor=none;endArrow=open;endFill=0;dashed=1;entryX=0.5;entryY=0;entryDx=0;entryDy=0;exitX=0.5;exitY=1;exitDx=0;exitDy=0;" parent="1" source="input-data" target="highlight-operations" edge="1">
                    <mxGeometry width="160" relative="1" as="geometry">
                        <mxPoint x="319" y="412" as="sourcePoint"/>
                        <mxPoint x="468" y="320" as="targetPoint"/>
                    </mxGeometry>
                </mxCell>
                <mxCell id="7" value="&amp;lt;&amp;lt;extend&lt;span style=&quot;color: rgb(63, 63, 63); background-color: transparent;&quot;&gt;&amp;gt;&amp;gt;&lt;/span&gt;" style="html=1;verticalAlign=bottom;labelBackgroundColor=none;endArrow=open;endFill=0;dashed=1;exitX=1;exitY=1;exitDx=0;exitDy=0;entryX=0.5;entryY=0;entryDx=0;entryDy=0;" parent="1" source="start-visualization" target="control-animation" edge="1">
                    <mxGeometry width="160" relative="1" as="geometry">
                        <mxPoint x="330" y="165" as="sourcePoint"/>
                        <mxPoint x="470" y="165" as="targetPoint"/>
                    </mxGeometry>
                </mxCell>
                <mxCell id="8" value="&amp;lt;&amp;lt;include&amp;gt;&amp;gt;" style="html=1;verticalAlign=bottom;labelBackgroundColor=none;endArrow=open;endFill=0;dashed=1;exitX=0;exitY=0.5;exitDx=0;exitDy=0;entryX=1;entryY=0.5;entryDx=0;entryDy=0;" parent="1" source="step-through" target="view-state-info" edge="1">
                    <mxGeometry width="160" relative="1" as="geometry">
                        <mxPoint x="730" y="460" as="sourcePoint"/>
                        <mxPoint x="890" y="460" as="targetPoint"/>
                    </mxGeometry>
                </mxCell>
                <mxCell id="11" value="&amp;lt;&amp;lt;include&lt;span style=&quot;color: rgb(63, 63, 63); background-color: transparent;&quot;&gt;&amp;gt;&amp;gt;&lt;/span&gt;" style="html=1;verticalAlign=bottom;labelBackgroundColor=none;endArrow=open;endFill=0;dashed=1;exitX=1;exitY=0;exitDx=0;exitDy=0;entryX=0.5;entryY=1;entryDx=0;entryDy=0;" edge="1" parent="1" source="practice-mode" target="control-animation">
                    <mxGeometry width="160" relative="1" as="geometry">
                        <mxPoint x="312" y="190" as="sourcePoint"/>
                        <mxPoint x="430" y="310" as="targetPoint"/>
                    </mxGeometry>
                </mxCell>
                <mxCell id="12" value="&amp;lt;&amp;lt;extend&lt;span style=&quot;color: rgb(63, 63, 63); background-color: transparent;&quot;&gt;&amp;gt;&amp;gt;&lt;/span&gt;" style="html=1;verticalAlign=bottom;labelBackgroundColor=none;endArrow=open;endFill=0;dashed=1;exitX=1;exitY=0.5;exitDx=0;exitDy=0;entryX=0;entryY=0.5;entryDx=0;entryDy=0;" edge="1" parent="1" source="practice-mode" target="save-session">
                    <mxGeometry width="160" relative="1" as="geometry">
                        <mxPoint x="312" y="190" as="sourcePoint"/>
                        <mxPoint x="430" y="310" as="targetPoint"/>
                    </mxGeometry>
                </mxCell>
                <mxCell id="14" value="&amp;lt;&amp;lt;extend&amp;gt;&amp;gt;" style="html=1;verticalAlign=bottom;labelBackgroundColor=none;endArrow=open;endFill=0;dashed=1;entryX=0.5;entryY=0;entryDx=0;entryDy=0;exitX=0.5;exitY=1;exitDx=0;exitDy=0;" edge="1" parent="1" source="compare-executions" target="view-state-info">
                    <mxGeometry width="160" relative="1" as="geometry">
                        <mxPoint x="720" y="165" as="sourcePoint"/>
                        <mxPoint x="850" y="165" as="targetPoint"/>
                    </mxGeometry>
                </mxCell>
                <mxCell id="15" value="&amp;lt;&amp;lt;extend&amp;gt;&amp;gt;" style="html=1;verticalAlign=bottom;labelBackgroundColor=none;endArrow=open;endFill=0;dashed=1;entryX=0.5;entryY=0;entryDx=0;entryDy=0;exitX=0.5;exitY=1;exitDx=0;exitDy=0;" edge="1" parent="1" source="pause-resume" target="step-through">
                    <mxGeometry width="160" relative="1" as="geometry">
                        <mxPoint x="660" y="200" as="sourcePoint"/>
                        <mxPoint x="660" y="290" as="targetPoint"/>
                    </mxGeometry>
                </mxCell>
                <mxCell id="16" value="&amp;lt;&amp;lt;extend&lt;span style=&quot;color: rgb(63, 63, 63); background-color: transparent;&quot;&gt;&amp;gt;&amp;gt;&lt;/span&gt;" style="html=1;verticalAlign=bottom;labelBackgroundColor=none;endArrow=open;endFill=0;dashed=1;exitX=0.5;exitY=1;exitDx=0;exitDy=0;entryX=0.5;entryY=0;entryDx=0;entryDy=0;" edge="1" parent="1" source="start-visualization" target="modify-parameters">
                    <mxGeometry width="160" relative="1" as="geometry">
                        <mxPoint x="312" y="190" as="sourcePoint"/>
                        <mxPoint x="430" y="310" as="targetPoint"/>
                    </mxGeometry>
                </mxCell>
            </root>
        </mxGraphModel>
    </diagram>
</mxfile>